<svg width="24" height="25" viewBox="0 0 24 25" fill="none" xmlns="http://www.w3.org/2000/svg">
<g id="drop-svgrepo-com" clip-path="url(#clip0_34_258)">
<path id="Vector" d="M12.879 0.753819C12.7212 0.410576 12.378 0.190572 12.0002 0.190491C11.6224 0.190409 11.2789 0.410169 11.1211 0.753411C8.68769 6.04581 4.37207 12.8577 4.37207 16.5626C4.37207 20.7754 7.78714 24.1905 12 24.1905C16.2128 24.1905 19.6279 20.7753 19.6279 16.5626C19.628 12.858 15.3125 6.04622 12.879 0.753819ZM11.6742 21.7605C8.85581 21.7605 6.56299 19.4677 6.56299 16.6493C6.56299 16.0871 7.01888 15.6312 7.58115 15.6312C8.14342 15.6312 8.59931 16.0871 8.59931 16.6493C8.59931 18.3448 9.97872 19.7242 11.6742 19.7242C12.2364 19.7242 12.6923 20.1801 12.6923 20.7423C12.6923 21.3047 12.2364 21.7605 11.6742 21.7605Z" fill="#DDDDDD"/>
</g>
<defs>
<clipPath id="clip0_34_258">
<rect width="24" height="24" fill="white" transform="translate(0 0.190491)"/>
</clipPath>
</defs>
</svg>
