<svg width="24" height="24" viewBox="0 0 24 24" fill="none" xmlns="http://www.w3.org/2000/svg">
<g id="Group">
<path id="Vector" d="M7.55273 11.6467C7.08202 10.6443 6.90959 9.56118 6.74013 8.50034C6.59198 7.5703 6.43887 6.60955 6.08163 5.73154C5.09461 3.31009 2.71032 1.68241 0.148146 1.68092L0.132786 1.68043C0.104048 1.78498 0.0827416 1.89349 0.0753093 2.00894L0.0232829 2.86167C-0.246759 7.25666 1.85511 11.1502 5.45533 13.1421C6.11433 12.5668 6.81842 12.0728 7.55273 11.6467Z" fill="#DDDDDD"/>
<path id="Vector_2" d="M6.99926 5.35794C7.40011 6.34099 7.56214 7.35972 7.71921 8.34426C7.87875 9.34514 8.03285 10.3113 8.42924 11.1775C10.1139 10.3673 11.9467 9.93775 13.8459 9.93775C13.8514 9.93775 13.8563 9.93824 13.8618 9.93824C13.1666 4.49678 8.75924 0.556656 3.06706 0.556656C2.81486 0.556656 2.56067 0.564584 2.30351 0.580439L1.45127 0.632961C1.27636 0.643366 1.11533 0.683006 0.966187 0.741969C3.59624 1.0462 5.96518 2.82154 6.99926 5.35794Z" fill="#DDDDDD"/>
<path id="Vector_3" d="M14.2478 17.0143C16.7079 19.4744 20.7114 19.4744 23.1715 17.0143L23.8048 16.4128C23.7007 16.1794 23.5659 15.9535 23.3836 15.7474L22.8172 15.1082C20.4339 12.4137 17.2484 10.9287 13.8464 10.9287C10.4444 10.9287 7.2579 12.4132 4.8751 15.1082L4.30925 15.7474C3.952 16.1512 3.7543 16.6229 3.69781 17.105L3.84151 16.993C6.71832 14.139 11.3804 14.1464 14.2478 17.0143Z" fill="#DDDDDD"/>
<path id="Vector_4" d="M23.8628 17.7239C22.4917 19.0954 20.6584 19.8555 18.7097 19.8555C16.7609 19.8555 14.9271 19.0954 13.5472 17.7154C12.3545 16.5228 10.7511 15.8658 9.03377 15.8658C7.3164 15.8658 5.713 16.5228 4.52036 17.7154L4.47428 17.7551L3.84253 18.2486C3.94856 18.5157 4.10266 18.7718 4.30878 19.0052L4.87463 19.6449C7.25793 22.3393 10.4439 23.8238 13.846 23.8238C17.248 23.8238 20.434 22.3398 22.8168 19.6454L23.3831 19.0057C23.7538 18.5865 23.9529 18.094 23.9995 17.5935L23.8628 17.7239Z" fill="#DDDDDD"/>
</g>
</svg>
