<svg width="11" height="11" viewBox="0 0 11 11" fill="none" xmlns="http://www.w3.org/2000/svg">
<g id="Layer 2">
<g id="plus">
<path id="Vector" d="M8.8811 5.05983L6.38118 5.07999L6.36103 2.58007C6.36013 2.46956 6.31538 2.36394 6.23662 2.28643C6.15785 2.20893 6.05152 2.16588 5.94101 2.16677C5.83051 2.16766 5.72489 2.21242 5.64738 2.29118C5.56987 2.36995 5.52683 2.47628 5.52772 2.58679L5.54788 5.08671L3.04796 5.10686C2.93745 5.10775 2.83183 5.1525 2.75432 5.23127C2.67682 5.31004 2.63377 5.41637 2.63466 5.52687C2.63555 5.63738 2.68031 5.743 2.75907 5.82051C2.83784 5.89802 2.94417 5.94106 3.05468 5.94017L5.55459 5.92001L5.57475 8.41993C5.57564 8.53043 5.62039 8.63606 5.69916 8.71356C5.77793 8.79107 5.88426 8.83411 5.99476 8.83322C6.10527 8.83233 6.21089 8.78758 6.2884 8.70881C6.36591 8.63005 6.40895 8.52371 6.40806 8.41321L6.3879 5.91329L8.88782 5.89314C8.99832 5.89225 9.10395 5.84749 9.18145 5.76873C9.25896 5.68996 9.302 5.58363 9.30111 5.47312C9.30022 5.36262 9.25547 5.257 9.1767 5.17949C9.09794 5.10198 8.9916 5.05894 8.8811 5.05983Z" fill="#967259"/>
</g>
</g>
</svg>
